<svg preserveAspectRatio="none" overflow="visible" style="display: block;" width="18" height="18" viewBox="0 0 18 18" fill="none" xmlns="http://www.w3.org/2000/svg">
<g id="providers/warehouse">
<path id="Union" d="M7.73145 1.07817C7.89523 0.973944 8.10477 0.973944 8.26855 1.07817L13.7686 4.57817C13.9127 4.66995 14 4.82912 14 5.00004V14H13V5.27446L8 2.09282L3 5.27446V14H2V5.00004C2 4.82912 2.08726 4.66995 2.23145 4.57817L7.73145 1.07817ZM6 14H4V12H6V14ZM9 14H7V12H9V14ZM12 14H10V12H12V14ZM6 11H4V9.00004H6V11ZM9 11H7V9.00004H9V11ZM9 8.00004H7V6.00004H9V8.00004Z" fill="#CED0D6"/>
</g>
</svg>
